<?xml version="1.0" standalone="no"?>
<!DOCTYPE svg PUBLIC "-//W3C//DTD SVG 20010904//EN"
 "http://www.w3.org/TR/2001/REC-SVG-20010904/DTD/svg10.dtd">
<svg version="1.0" xmlns="http://www.w3.org/2000/svg"
 width="888.000000pt" height="888.000000pt" viewBox="0 0 888.000000 888.000000"
 preserveAspectRatio="xMidYMid meet">
<metadata>
Created by potrace 1.14, written by Peter Selinger 2001-2017
</metadata>
<g transform="translate(0.000000,888.000000) scale(0.100000,-0.100000)"
fill="#000000" stroke="none">
<path d="M2678 8196 c-1 -2 -28 -6 -58 -9 -96 -10 -188 -43 -385 -138 -49 -24
-92 -44 -95 -44 -3 -1 -77 -37 -165 -81 -158 -79 -255 -122 -291 -129 -11 -2
-19 -4 -19 -5 0 -2 -20 -7 -59 -15 -15 -3 -101 -24 -190 -47 -88 -23 -168 -42
-176 -43 -8 -1 -23 -5 -32 -9 -9 -4 -22 -8 -30 -10 -7 -1 -19 -5 -26 -9 -6 -5
-12 -6 -12 -3 0 6 -123 -37 -203 -70 -127 -54 -239 -160 -303 -289 -26 -51
-34 -72 -49 -125 -11 -41 -16 -77 -17 -128 -1 -40 -5 -59 -12 -55 -6 4 -5 0 1
-8 7 -9 14 -36 15 -61 2 -25 7 -43 12 -40 5 3 7 -2 3 -11 -4 -10 -1 -17 5 -17
6 0 9 -3 5 -6 -3 -4 0 -19 9 -35 8 -16 11 -29 7 -29 -5 0 -3 -4 2 -8 15 -10
35 -49 35 -67 0 -8 4 -15 8 -15 5 0 14 -16 22 -35 8 -19 18 -35 23 -35 5 0 6
-7 3 -16 -3 -8 -2 -13 3 -10 4 3 16 -3 26 -14 10 -11 15 -20 10 -20 -4 0 3 -9
16 -20 24 -20 24 -20 5 -35 -11 -8 -15 -15 -9 -15 7 0 15 5 18 10 3 6 11 10
16 10 6 0 7 -4 4 -10 -3 -5 -3 -10 2 -10 4 0 32 -23 61 -50 30 -28 58 -50 63
-50 6 0 7 -4 4 -10 -3 -5 1 -10 9 -10 9 0 16 -4 16 -10 0 -5 7 -10 15 -10 8 0
15 -4 15 -8 0 -5 18 -18 40 -31 22 -12 40 -26 40 -31 0 -5 10 -12 22 -16 12
-3 28 -12 35 -18 32 -29 43 -36 53 -36 5 0 10 -4 10 -10 0 -5 7 -10 15 -10 8
0 15 -4 15 -10 0 -5 8 -10 19 -10 10 0 24 -7 31 -15 7 -8 18 -15 26 -15 7 0
15 -4 18 -9 3 -5 -15 -2 -42 6 -26 8 -56 16 -67 18 -11 1 -21 4 -22 5 -5 4
-22 7 -49 9 -14 0 -22 5 -19 11 4 6 -2 7 -17 1 -13 -5 -34 -4 -48 1 -38 14
-252 7 -338 -12 -175 -39 -271 -89 -362 -188 -67 -73 -121 -170 -145 -262 -20
-74 -27 -229 -13 -247 7 -9 7 -13 0 -13 -6 0 -4 -16 4 -41 8 -22 12 -45 9 -50
-4 -5 -2 -9 2 -9 5 0 15 -17 22 -37 15 -46 29 -79 47 -114 7 -14 11 -29 7 -33
-3 -3 -1 -6 5 -6 7 0 12 -9 12 -20 0 -11 5 -20 10 -20 6 0 10 -8 10 -19 0 -10
7 -24 15 -31 8 -7 13 -16 10 -20 -3 -4 4 -19 15 -33 11 -14 20 -31 20 -39 0
-7 7 -24 16 -36 8 -12 12 -22 7 -22 -4 0 -3 -4 2 -8 12 -9 59 -104 57 -114 -1
-5 3 -8 9 -8 7 0 9 -10 5 -27 -5 -20 -4 -24 3 -13 8 12 12 9 20 -14 6 -15 8
-32 5 -38 -4 -7 -2 -8 4 -4 7 4 12 1 12 -8 0 -9 5 -16 11 -16 7 0 9 -10 7 -25
-3 -13 -1 -22 3 -19 5 3 11 -8 15 -23 4 -15 11 -34 17 -40 5 -7 6 -13 3 -13
-4 0 -2 -9 4 -20 6 -11 13 -39 16 -62 4 -24 11 -49 16 -55 7 -9 7 -13 -1 -13
-6 0 -11 -4 -11 -10 0 -5 3 -9 8 -9 19 3 25 -2 12 -11 -11 -7 -11 -10 -2 -10
7 0 10 -5 7 -10 -4 -6 -2 -17 4 -24 6 -7 12 -29 13 -49 2 -20 6 -37 11 -37 4
0 7 -10 7 -22 0 -13 4 -30 10 -38 6 -9 5 -20 -3 -29 -9 -12 -9 -13 0 -7 12 7
19 -12 14 -38 -1 -5 3 -12 8 -16 6 -3 12 -23 13 -43 2 -20 6 -37 9 -37 5 0 29
-83 30 -105 0 -5 4 -14 9 -20 10 -13 35 -88 32 -97 -1 -5 2 -8 6 -8 8 0 35
-46 36 -63 1 -4 8 -12 16 -17 8 -5 12 -10 8 -10 -4 0 9 -17 28 -38 20 -20 39
-47 44 -59 7 -16 14 -21 26 -16 14 5 16 3 11 -11 -4 -10 -3 -15 4 -11 13 9 41
-14 32 -28 -3 -6 -1 -7 6 -3 6 4 23 -1 39 -12 32 -22 63 -36 76 -33 5 1 6 -7
3 -18 -4 -17 -2 -18 14 -8 14 9 22 9 27 1 4 -6 15 -10 25 -8 9 1 17 -1 17 -5
0 -4 12 -7 28 -8 47 -1 53 -3 47 -13 -4 -6 2 -7 17 -1 12 4 37 5 55 1 18 -5
33 -4 33 0 0 10 33 5 52 -6 7 -4 8 -3 4 4 -5 8 1 12 14 12 14 0 19 -4 15 -12
-4 -7 0 -5 8 5 10 12 17 14 22 8 3 -6 12 -11 18 -10 9 0 9 2 0 6 -7 2 -13 8
-13 12 0 7 7 9 50 13 11 1 20 5 20 9 0 3 12 11 26 17 20 10 24 10 19 0 -4 -7
0 -5 8 5 8 10 24 19 36 20 12 1 21 5 21 9 0 4 10 12 21 19 12 6 19 7 16 2 -4
-5 0 -10 7 -10 8 0 12 7 9 14 -4 9 3 16 16 20 11 3 21 9 21 14 0 5 6 9 14 9 8
0 17 7 20 16 4 9 9 14 12 11 3 -3 41 30 84 74 43 43 83 79 90 79 6 0 8 5 4 12
-4 6 -1 16 7 22 8 6 25 28 38 49 23 38 38 50 27 21 -3 -9 -2 -12 5 -9 6 4 8
14 5 22 -7 17 18 46 29 35 5 -4 5 -2 1 5 -8 15 22 65 35 57 5 -3 6 1 4 8 -3 8
2 22 11 33 8 11 12 14 8 6 -4 -9 -3 -12 4 -7 6 4 9 13 6 21 -4 8 0 17 8 20 8
3 15 12 15 19 0 7 14 33 31 58 17 25 28 49 24 53 -4 5 0 6 9 2 12 -4 15 0 13
18 -1 14 4 26 13 30 9 3 13 8 10 12 -4 3 1 12 11 20 9 8 12 12 5 9 -6 -4 -1
13 12 36 13 24 36 69 51 100 15 32 31 55 37 51 5 -3 7 -1 3 5 -10 16 12 64 26
56 6 -4 8 -3 5 4 -10 14 31 105 43 97 6 -4 7 1 3 11 -5 13 -3 15 8 9 12 -8 12
-6 0 8 -7 9 -9 17 -3 17 5 0 12 9 15 21 3 12 9 19 14 16 4 -3 9 5 9 17 2 32
53 106 68 100 7 -3 19 -24 26 -47 8 -23 17 -46 22 -52 4 -5 8 -17 8 -27 0 -10
5 -18 12 -18 6 0 9 -3 5 -6 -3 -3 5 -26 19 -51 13 -25 24 -52 24 -60 0 -8 7
-21 15 -30 8 -8 13 -19 10 -24 -4 -5 -2 -9 3 -9 9 0 39 -69 35 -82 -2 -4 2 -8
7 -8 6 0 10 -7 10 -15 0 -8 5 -15 10 -15 6 0 10 -8 10 -17 0 -10 9 -33 20 -51
18 -28 19 -37 8 -50 -11 -15 -11 -15 3 -4 14 10 18 10 23 -4 3 -9 3 -21 -1
-26 -3 -6 -2 -8 3 -5 6 3 30 -37 54 -89 25 -52 48 -94 52 -94 4 0 5 -9 3 -20
-2 -11 0 -18 6 -15 5 4 9 -1 9 -9 0 -9 5 -16 11 -16 5 0 8 -4 5 -9 -4 -5 -2
-11 3 -13 5 -1 11 -9 13 -17 2 -8 11 -23 21 -33 10 -11 16 -26 13 -34 -3 -8
-2 -13 3 -10 4 3 14 -6 21 -19 7 -14 17 -25 22 -25 4 0 8 -7 8 -16 0 -9 -5
-12 -12 -8 -7 4 -8 3 -4 -4 4 -6 13 -9 21 -6 8 3 19 -4 26 -18 7 -12 18 -29
26 -36 7 -8 11 -18 7 -23 -3 -5 0 -8 8 -7 7 2 12 -3 10 -10 -1 -8 1 -11 6 -8
11 7 42 -30 38 -46 -1 -7 -1 -10 1 -5 3 4 11 7 20 7 10 0 13 -6 8 -22 -4 -16
-3 -19 3 -9 8 11 13 10 30 -5 12 -10 18 -22 15 -27 -3 -6 -1 -7 5 -3 21 13 33
-3 21 -27 -10 -21 -9 -21 5 -3 14 17 16 17 31 3 8 -9 24 -19 35 -22 11 -3 20
-11 20 -17 0 -6 3 -9 6 -5 4 3 19 0 35 -9 16 -8 31 -14 34 -14 26 1 29 -1 15
-10 -9 -6 -10 -10 -3 -10 6 0 15 5 18 10 4 6 12 7 18 3 6 -4 28 -8 48 -9 21
-1 42 -5 48 -9 6 -3 11 -2 11 2 0 5 13 8 29 7 18 -1 38 6 50 17 12 11 21 16
21 12 0 -4 8 4 18 20 10 15 21 24 25 21 3 -3 4 2 3 13 -2 10 0 20 5 23 8 5 21
85 21 127 0 14 5 20 12 16 8 -5 8 -3 0 8 -6 8 -12 21 -12 29 -2 42 -17 91 -43
145 -28 59 -31 61 -121 105 -102 50 -190 104 -228 141 -31 29 -102 127 -104
145 -1 6 -7 18 -12 25 -6 8 -22 34 -35 59 -13 25 -28 48 -34 52 -5 4 -6 8 -1
8 5 0 3 8 -6 18 -35 42 -209 410 -187 397 5 -4 9 -1 9 4 0 6 -7 11 -16 11 -14
0 -14 3 -4 16 11 12 11 15 1 12 -14 -3 -21 18 -23 64 -1 15 -5 25 -10 22 -4
-3 -8 0 -8 5 0 6 6 11 13 12 6 0 20 2 30 4 9 2 17 -1 17 -6 0 -6 6 -9 13 -8 6
1 21 -1 32 -5 11 -4 32 -12 48 -18 15 -6 27 -15 27 -20 0 -5 4 -7 9 -4 13 9
83 -23 76 -34 -3 -6 1 -7 10 -4 10 4 29 -3 47 -16 17 -12 27 -17 23 -10 -4 6
4 4 18 -5 14 -9 30 -17 34 -18 4 -1 7 -5 6 -8 -1 -4 7 -5 17 -2 11 3 20 0 20
-6 0 -6 9 -11 20 -11 11 0 20 -4 20 -8 0 -5 7 -9 15 -10 8 -1 22 -3 30 -4 8
-1 15 -5 15 -9 0 -4 14 -10 30 -14 19 -4 30 -13 30 -23 0 -14 2 -15 9 -3 7 11
13 12 23 4 7 -6 39 -19 71 -28 31 -9 55 -20 52 -25 -3 -4 4 -6 15 -3 11 3 26
0 33 -6 8 -6 24 -13 38 -15 13 -3 25 -5 27 -7 1 -1 8 -2 15 -3 6 -1 11 -8 9
-16 -2 -10 0 -11 11 -2 8 7 17 9 21 5 4 -4 19 -9 34 -11 14 -2 32 -7 38 -13 6
-5 13 -7 16 -4 3 3 24 -1 46 -9 23 -9 42 -13 42 -11 0 2 14 -1 30 -6 35 -13
37 -21 11 -57 -10 -15 -22 -37 -25 -50 -4 -13 -12 -19 -18 -16 -7 5 -9 1 -5
-9 4 -11 -1 -20 -14 -27 -11 -6 -17 -15 -14 -20 3 -5 -6 -12 -21 -16 -15 -4
-21 -9 -14 -14 8 -5 7 -10 -4 -19 -13 -11 -12 -18 7 -59 12 -26 28 -53 35 -60
6 -7 12 -17 12 -20 0 -4 17 -24 38 -44 61 -61 72 -70 72 -61 0 4 5 0 11 -9 5
-10 19 -18 31 -18 15 0 18 -4 14 -16 -5 -13 -4 -14 7 -6 10 8 20 8 38 -2 13
-7 31 -10 38 -8 8 3 11 1 8 -4 -3 -5 24 -8 59 -8 45 1 62 -2 57 -10 -5 -8 -3
-8 8 0 20 16 68 23 76 11 3 -6 12 -2 20 9 11 15 15 16 22 5 7 -10 9 -11 13 -1
4 12 22 19 56 22 6 1 12 5 12 9 0 7 60 33 73 30 4 0 7 4 7 10 0 5 4 8 9 5 5
-4 11 -3 13 2 7 16 78 53 89 46 8 -5 9 -3 4 6 -6 10 -4 12 8 7 9 -3 19 -1 23
5 4 7 3 8 -4 4 -7 -4 -12 -5 -12 -2 0 11 92 54 110 51 14 -3 17 1 13 12 -5 12
-2 15 9 11 9 -4 20 -2 24 2 5 5 29 12 53 15 40 5 43 4 30 -12 -13 -17 -12 -17
6 -2 13 11 27 14 40 9 11 -4 23 -6 28 -3 4 2 21 -6 39 -18 17 -13 28 -17 23
-9 -6 9 -4 11 4 6 7 -5 10 -14 7 -22 -3 -8 0 -11 8 -8 7 3 20 -2 29 -10 8 -8
17 -12 21 -9 3 4 6 -1 6 -10 0 -9 5 -17 11 -17 6 0 8 -7 5 -16 -3 -8 -2 -13 3
-10 12 8 34 -21 26 -34 -3 -5 -1 -10 4 -10 12 0 15 -26 4 -33 -5 -2 -3 -2 4
-1 6 2 14 -4 17 -12 9 -23 7 -36 -3 -29 -5 3 -13 1 -16 -5 -4 -6 -1 -9 6 -8 6
2 13 -2 16 -8 2 -7 -9 -14 -26 -16 -18 -3 -28 -1 -24 6 4 5 -4 2 -18 -7 -13
-9 -30 -17 -39 -17 -20 0 -75 -28 -126 -64 -95 -69 -154 -193 -146 -308 2 -34
5 -75 6 -90 0 -14 4 -24 7 -22 7 4 22 -34 20 -48 -1 -5 4 -8 10 -8 5 0 8 -4 5
-9 -4 -5 -2 -11 3 -13 5 -1 11 -9 13 -17 3 -14 23 -38 84 -101 28 -30 32 -38
22 -50 -11 -12 -10 -12 4 -1 14 10 22 9 47 -10 17 -12 28 -26 25 -31 -3 -5 0
-9 7 -7 28 3 49 -1 49 -11 0 -7 -30 -9 -82 -6 -46 2 -91 5 -101 5 -11 1 -15 6
-11 12 5 8 1 8 -14 0 -12 -6 -23 -7 -26 -2 -3 5 -16 7 -28 3 -11 -3 -19 -1
-16 4 4 5 -15 9 -40 9 -26 -1 -57 2 -69 6 -21 8 -124 20 -198 24 -45 2 -147
-24 -217 -55 -87 -38 -202 -140 -230 -203 -7 -15 -16 -27 -19 -27 -4 0 -10
-10 -14 -23 -4 -12 -8 -24 -10 -27 -2 -5 -11 -31 -27 -72 -5 -15 -7 -31 -4
-37 4 -5 2 -12 -3 -16 -5 -3 -10 -13 -10 -23 1 -22 -8 -134 -11 -147 -1 -5 -1
-12 0 -15 7 -19 5 -70 -4 -70 -8 0 -8 -3 -1 -8 6 -4 11 -21 12 -39 0 -42 12
-71 21 -55 5 6 17 13 27 15 11 1 26 6 33 11 7 4 20 2 29 -6 12 -9 15 -9 9 -1
-4 7 -2 14 3 14 26 3 30 4 37 11 12 13 26 9 18 -4 -6 -10 -4 -10 7 0 20 19
102 14 166 -10 32 -12 61 -21 66 -20 4 1 7 -3 7 -8 0 -6 7 -10 15 -10 17 0 56
-20 66 -33 3 -5 10 -9 15 -10 5 -1 8 -9 7 -17 -1 -11 3 -9 13 4 8 11 14 14 14
8 0 -7 7 -12 15 -12 8 0 15 -4 15 -10 0 -5 3 -9 8 -9 17 3 33 -2 29 -8 -3 -5
7 -9 21 -10 15 0 28 -6 30 -12 2 -6 12 -11 23 -11 10 0 19 -7 19 -15 0 -8 -4
-15 -9 -15 -5 0 -11 -9 -14 -21 -4 -13 -10 -18 -18 -13 -8 4 -10 3 -5 -4 6 -9
-21 -59 -44 -82 -3 -3 -6 -12 -8 -20 -2 -8 -9 -22 -16 -30 -8 -8 -27 -50 -43
-93 -16 -42 -31 -76 -34 -75 -2 2 -2 0 1 -4 3 -4 4 -28 2 -53 -3 -30 -8 -43
-16 -38 -7 5 -7 2 1 -8 10 -12 10 -18 0 -29 -7 -8 -8 -11 -1 -7 8 5 13 -6 16
-28 2 -20 0 -35 -7 -35 -6 0 -6 -3 1 -8 6 -4 14 -25 18 -47 10 -54 13 -66 21
-92 4 -12 6 -25 5 -29 -1 -4 3 -10 8 -13 6 -3 12 -17 13 -31 2 -14 10 -31 17
-39 7 -7 10 -21 7 -29 -3 -9 -3 -13 1 -10 7 8 54 -76 54 -98 0 -7 4 -14 8 -14
5 0 15 -12 23 -28 8 -15 18 -30 24 -34 6 -5 4 -12 -5 -19 -13 -9 -12 -10 2 -5
11 3 22 -2 28 -14 6 -11 7 -20 3 -20 -4 0 0 -5 10 -11 12 -7 16 -18 13 -32 -3
-12 -3 -16 0 -9 3 6 10 9 15 6 6 -3 5 -12 -3 -22 -10 -12 -10 -14 0 -8 15 9
47 -58 36 -76 -4 -6 -3 -8 4 -4 9 6 21 -16 26 -48 1 -6 8 -26 15 -44 13 -31
14 -32 27 -13 7 10 25 22 39 25 14 4 25 11 25 17 0 6 5 7 11 4 5 -4 18 0 27 8
31 29 68 37 84 20 11 -10 18 -12 23 -4 3 6 1 10 -6 9 -6 -2 -13 2 -16 9 -5 14
15 21 102 37 6 1 15 4 20 7 6 4 18 5 28 4 9 -2 17 1 17 7 0 6 11 8 25 6 13 -3
22 -2 20 2 -3 4 5 11 18 15 12 4 29 9 37 12 8 2 25 5 36 6 15 1 20 6 16 17 -3
8 -2 12 3 8 4 -4 19 -1 34 6 14 7 34 12 43 11 12 -2 15 2 11 13 -4 10 -3 14 2
10 4 -4 21 2 37 14 25 17 32 18 39 7 8 -11 9 -9 7 6 -2 12 2 19 10 17 6 -1 12
3 12 9 0 6 7 9 15 5 8 -3 14 -2 12 2 -1 4 10 20 26 35 15 16 27 26 27 23 0 -3
16 10 35 30 19 19 35 40 35 46 0 6 3 8 7 4 4 -3 15 12 25 34 11 25 23 38 30
34 6 -4 8 -3 5 3 -4 6 0 27 8 46 8 19 11 37 8 41 -4 3 0 6 7 6 7 0 11 3 7 6
-3 3 -1 18 5 33 5 14 12 40 15 56 3 17 10 33 16 37 8 5 7 8 -3 8 -11 1 -10 4
4 15 11 8 14 15 8 15 -7 0 -12 7 -12 16 0 8 4 13 8 10 4 -2 6 11 4 30 -6 49 2
62 32 57 14 -3 23 -9 20 -14 -3 -5 2 -6 11 -3 8 4 21 1 29 -5 7 -6 16 -8 19
-4 4 3 7 1 7 -4 0 -6 -6 -14 -12 -16 -10 -4 -10 -6 -1 -6 6 -1 15 3 18 9 10
16 35 11 36 -7 0 -10 3 -13 5 -6 5 11 27 7 84 -14 8 -4 21 -5 28 -4 6 1 12 -3
12 -9 0 -5 9 -10 19 -10 31 0 51 -11 44 -24 -4 -6 0 -5 9 2 14 11 20 9 39 -10
12 -13 18 -16 13 -8 -14 26 46 -18 96 -69 57 -58 83 -98 74 -114 -4 -7 -4 -9
1 -5 5 5 17 -6 27 -23 15 -25 22 -29 33 -19 8 6 20 8 27 4 7 -4 10 -4 6 1 -12
13 12 47 28 41 9 -4 12 -2 8 5 -3 6 9 25 27 43 19 17 36 36 39 41 2 6 13 20
24 33 11 12 32 43 46 67 15 25 30 42 35 38 4 -5 5 -3 2 3 -4 6 6 37 22 68 16
31 25 54 20 50 -17 -10 -9 5 14 26 20 19 20 21 2 14 -16 -6 -18 -5 -9 7 6 8
11 26 10 42 -1 15 1 27 4 27 4 0 4 23 0 50 -4 33 -3 50 4 50 8 0 7 3 0 8 -10
6 -15 26 -30 102 -7 36 -80 162 -119 207 -23 26 -69 66 -101 88 -33 22 -63 43
-69 48 -5 4 -32 22 -60 40 -27 17 -55 36 -62 42 -7 5 -19 15 -27 22 -7 6 -16
10 -18 7 -3 -2 -13 5 -23 16 -10 11 -22 20 -28 20 -5 0 -17 8 -26 18 -9 9 -25
22 -36 28 -36 20 -25 39 20 35 47 -5 147 -4 190 2 29 5 40 7 80 23 11 4 23 6
28 6 4 -1 7 3 7 10 0 6 3 9 6 5 4 -3 21 5 39 18 17 14 38 25 45 25 7 0 11 2 8
5 -2 3 15 26 38 52 24 26 41 49 39 52 -3 2 2 13 12 23 9 10 13 18 9 18 -3 0 0
15 7 33 15 36 19 184 6 193 -5 3 -9 16 -9 29 0 13 -4 27 -10 30 -5 3 -10 13
-10 22 0 8 -10 28 -21 45 -18 25 -19 32 -8 40 10 7 8 8 -8 3 -19 -5 -23 -2
-23 16 0 12 -3 20 -6 16 -4 -3 -13 1 -22 10 -14 14 -13 17 9 34 13 11 40 26
59 35 19 9 42 19 50 23 19 10 42 2 34 -11 -4 -5 4 -3 17 5 25 15 39 15 100 -1
55 -14 144 -77 133 -94 -3 -4 1 -8 9 -8 7 0 23 -21 35 -47 34 -79 61 -163 50
-163 -5 0 -3 -7 5 -15 8 -7 18 -30 21 -50 4 -19 11 -35 16 -35 6 0 9 -3 8 -7
-4 -12 26 -103 33 -103 5 0 32 -52 30 -58 -1 -1 4 -9 11 -17 7 -8 33 -39 58
-69 25 -30 49 -55 53 -55 14 -1 36 -28 29 -35 -3 -4 1 -4 11 0 11 4 17 1 17
-7 0 -7 3 -10 6 -6 4 3 23 -2 44 -13 37 -19 94 -29 180 -31 25 -1 52 -7 60
-13 13 -10 13 -9 1 7 -12 15 -11 17 13 18 32 2 32 2 80 23 21 9 43 15 50 13 7
-3 11 15 12 57 0 33 3 78 7 98 16 98 20 108 36 109 9 0 11 3 4 5 -7 3 -9 13
-6 22 10 29 54 83 63 77 5 -3 12 0 16 6 4 8 3 9 -4 5 -7 -4 -12 -4 -12 -1 0
12 123 125 136 125 8 0 11 6 7 17 -5 13 -2 15 11 10 10 -4 15 -3 11 3 -3 5 5
22 20 37 14 16 28 36 31 46 3 9 9 17 12 17 4 0 16 16 26 35 10 19 23 32 27 29
5 -3 6 2 3 10 -3 9 -1 16 5 16 6 0 10 3 9 8 -3 12 24 62 34 62 4 0 7 3 6 8 -6
15 36 93 47 88 8 -3 10 4 7 21 -3 18 -1 24 6 19 8 -4 10 -2 6 8 -3 8 -2 21 2
28 5 7 10 24 12 38 2 13 9 31 15 39 7 8 7 12 1 8 -7 -4 -10 10 -8 41 4 50 -13
160 -25 177 -5 6 -13 25 -19 43 -26 77 -175 253 -254 300 -16 9 -28 20 -28 24
0 4 -4 8 -9 8 -6 0 -29 13 -53 29 -39 26 -158 86 -249 125 -53 23 -166 51
-249 63 -43 6 -194 8 -255 3 -42 -4 -196 -40 -219 -52 -13 -7 -21 -6 -27 3 -7
11 -9 11 -9 -2 0 -18 -54 -34 -73 -22 -5 3 -7 2 -4 -4 3 -5 -10 -17 -29 -27
-24 -11 -33 -12 -28 -4 4 7 -1 6 -12 -3 -10 -9 -32 -23 -49 -31 -82 -42 -163
-96 -215 -145 -19 -18 -38 -33 -42 -33 -4 0 15 21 43 48 29 26 65 59 80 74 16
15 29 24 29 20 0 -3 7 4 16 16 9 14 22 21 31 18 8 -3 11 -1 8 4 -3 6 -1 10 5
10 6 0 8 4 5 10 -3 6 -2 10 4 10 6 0 19 10 31 22 11 12 20 19 20 15 0 -7 32
17 60 47 11 10 24 15 31 11 7 -5 10 -4 7 1 -2 5 6 19 19 31 13 12 23 18 23 13
0 -6 4 -10 10 -10 5 0 7 7 4 15 -4 9 3 19 20 26 14 7 26 17 26 22 0 6 3 8 6 5
3 -3 19 7 36 23 17 15 36 25 41 22 6 -3 7 -1 3 5 -8 13 28 35 39 24 5 -4 5 -1
1 6 -9 14 60 81 84 82 11 0 12 2 3 8 -8 5 -3 14 18 27 16 11 32 28 35 38 3 11
12 16 20 13 8 -3 13 -2 10 3 -8 12 29 52 39 43 5 -4 5 -1 1 6 -5 8 -1 21 10
33 14 16 20 17 33 6 14 -10 14 -10 3 4 -10 14 -10 20 3 33 9 9 13 16 8 16 -4
0 0 5 10 11 9 5 17 16 17 23 0 7 11 25 25 40 13 14 24 27 24 29 -3 8 26 57 33
57 5 0 7 4 3 9 -3 5 -1 12 5 16 6 4 8 11 5 16 -4 5 -1 9 4 9 6 0 11 7 11 15 0
7 8 19 18 24 13 8 14 10 2 11 -13 0 -13 1 0 10 8 5 11 10 6 10 -5 0 -4 6 2 13
15 18 52 136 52 165 0 13 3 21 8 19 4 -3 8 16 9 41 4 89 10 139 17 150 4 7 4
12 -1 12 -4 0 -9 30 -10 68 -1 37 -4 92 -7 122 -5 54 -8 74 -27 175 -5 28 -11
59 -14 70 -2 11 -4 20 -5 20 -1 0 -3 7 -5 15 -2 8 -17 65 -35 125 -17 61 -38
133 -45 160 -8 28 -21 77 -30 110 -24 86 -27 98 -28 122 -1 12 -4 20 -8 17 -6
-3 -15 33 -22 91 -1 11 -4 22 -7 25 -5 5 -37 121 -45 165 -2 11 -4 21 -5 23
-2 1 -3 5 -4 10 -5 33 -68 204 -81 219 -1 2 -21 -7 -46 -18 -24 -12 -62 -29
-84 -39 -23 -10 -75 -39 -116 -66 -40 -27 -81 -53 -90 -59 -32 -19 -144 -99
-149 -104 -3 -4 -59 -42 -125 -86 -66 -44 -122 -82 -125 -85 -6 -6 -26 -18
-100 -61 -30 -17 -71 -45 -91 -60 -20 -16 -42 -29 -48 -29 -6 0 -11 -4 -11 -9
0 -5 -8 -12 -17 -15 -10 -3 -29 -16 -43 -28 -14 -13 -48 -41 -75 -63 -65 -53
-173 -160 -210 -210 -17 -22 -35 -46 -42 -52 -16 -18 -84 -131 -87 -146 -1 -7
-11 -30 -21 -52 -21 -46 -19 -40 -29 -85 -5 -19 -11 -39 -14 -45 -7 -11 -12
-29 -17 -65 -1 -14 -4 -26 -5 -27 -1 -2 -4 -7 -5 -13 -1 -5 -3 -11 -4 -12 -2
-2 -4 -16 -6 -33 -2 -16 -7 -52 -11 -80 -9 -59 -12 -415 -3 -415 5 0 7 -23 12
-127 1 -22 5 -39 10 -36 4 2 8 -5 8 -16 1 -21 5 -39 8 -43 1 -2 4 -19 6 -38 4
-34 8 -53 21 -114 3 -16 7 -43 9 -60 1 -17 5 -38 8 -46 4 -8 8 -38 10 -67 1
-29 6 -55 10 -59 4 -4 2 -13 -4 -21 -7 -7 -7 -13 -2 -13 5 0 11 -23 12 -52 1
-50 -9 -62 -14 -16 -2 13 -6 35 -9 51 -3 15 -9 39 -12 54 -3 15 -7 29 -10 32
-2 2 1 10 8 18 9 11 7 12 -7 7 -12 -5 -16 -4 -11 4 3 6 2 13 -4 17 -6 4 -7 11
-4 17 4 6 2 13 -4 17 -7 4 -13 16 -15 26 -2 11 -13 42 -26 68 -12 26 -19 53
-15 60 4 7 4 9 -1 5 -11 -10 -47 50 -39 64 4 7 2 8 -4 4 -7 -4 -12 -1 -12 8 0
9 -4 16 -10 16 -5 0 -10 4 -10 10 0 11 -62 103 -72 108 -5 2 -8 8 -8 14 0 6
-37 47 -83 92 -121 118 -224 186 -374 245 -79 31 -217 71 -263 75 -75 8 -102
19 -111 45 -6 14 -28 61 -50 104 -21 42 -36 77 -32 77 5 0 3 4 -3 8 -15 9 -84
147 -84 167 0 8 -4 15 -8 15 -7 0 -45 98 -48 125 0 6 -6 30 -13 55 -17 60 -22
81 -25 105 -1 11 -4 25 -8 30 -3 6 -9 28 -13 50 -4 22 -14 61 -22 87 -8 26
-13 55 -9 63 3 9 2 14 -3 11 -7 -5 -35 88 -36 119 0 6 -2 12 -5 15 -3 3 -16
39 -29 80 -27 85 -77 196 -101 220 -8 8 -23 28 -33 43 -26 40 -142 132 -205
163 -120 59 -296 80 -401 48 -25 -7 -48 -14 -51 -15 -48 -14 -159 -70 -230
-117 -64 -42 -268 -244 -277 -275 -3 -9 -30 -48 -56 -80 -16 -20 -16 -20 -10
-2 3 11 9 25 13 30 9 13 24 68 28 103 1 7 6 11 11 7 6 -3 8 6 5 21 -3 14 0 32
7 40 6 8 9 14 5 14 -3 0 1 16 9 36 8 20 12 40 9 45 -3 5 -1 9 4 9 5 0 9 6 9
13 1 37 15 92 26 99 8 5 9 8 0 8 -6 0 -9 9 -6 21 4 13 11 18 22 15 15 -6 15
-5 0 6 -9 7 -14 22 -12 33 8 34 6 237 -1 283 -11 59 -14 76 -17 82 -1 3 -3 10
-4 15 -1 6 -4 17 -7 25 -3 8 -14 38 -23 65 -26 73 -98 177 -160 231 -54 47
-147 104 -195 118 -73 22 -100 27 -150 32 -30 3 -60 7 -67 9 -6 2 -13 2 -15 1z
m3378 -3596 c0 -12 -4 -16 -9 -11 -5 5 -6 14 -3 20 10 15 12 14 12 -9z m1 -75
c0 -8 -4 -12 -9 -9 -5 3 -6 10 -3 15 9 13 12 11 12 -6z m357 -1736 c-3 -5 -10
-7 -15 -3 -5 3 -7 10 -3 15 3 5 10 7 15 3 5 -3 7 -10 3 -15z"/>
<path d="M790 6397 c0 -2 6 -10 14 -16 11 -9 16 -9 22 1 4 7 4 10 -1 6 -4 -4
-14 -3 -22 3 -7 6 -13 9 -13 6z"/>
<path d="M853 6355 c0 -8 4 -12 9 -9 5 3 6 10 3 15 -9 13 -12 11 -12 -6z"/>
<path d="M955 6330 c-4 -6 -11 -7 -17 -4 -7 4 -8 2 -4 -5 6 -9 11 -9 22 0 14
11 18 19 10 19 -3 0 -8 -5 -11 -10z"/>
<path d="M896 6287 c3 -10 9 -15 12 -12 3 3 0 11 -7 18 -10 9 -11 8 -5 -6z"/>
<path d="M1069 6203 c-13 -16 -12 -17 4 -4 16 13 21 21 13 21 -2 0 -10 -8 -17
-17z"/>
<path d="M7610 5020 c0 -5 5 -10 11 -10 5 0 7 5 4 10 -3 6 -8 10 -11 10 -2 0
-4 -4 -4 -10z"/>
<path d="M3096 4967 c3 -10 9 -15 12 -12 3 3 0 11 -7 18 -10 9 -11 8 -5 -6z"/>
<path d="M250 4966 c0 -2 7 -7 16 -10 8 -3 12 -2 9 4 -6 10 -25 14 -25 6z"/>
<path d="M3153 4947 c0 -8 6 -14 14 -14 9 0 10 4 2 14 -6 7 -12 13 -14 13 -1
0 -2 -6 -2 -13z"/>
<path d="M356 4927 c3 -10 9 -15 12 -12 3 3 0 11 -7 18 -10 9 -11 8 -5 -6z"/>
<path d="M7510 4920 c0 -5 5 -10 10 -10 6 0 10 5 10 10 0 6 -4 10 -10 10 -5 0
-10 -4 -10 -10z"/>
<path d="M3097 4875 c-4 -8 -3 -16 1 -19 4 -3 9 4 9 15 2 23 -3 25 -10 4z"/>
<path d="M3176 4878 c3 -5 10 -6 15 -3 13 9 11 12 -6 12 -8 0 -12 -4 -9 -9z"/>
<path d="M7510 4880 c0 -5 5 -10 11 -10 5 0 7 5 4 10 -3 6 -8 10 -11 10 -2 0
-4 -4 -4 -10z"/>
<path d="M3315 4871 c-3 -5 -2 -12 3 -15 5 -3 9 1 9 9 0 17 -3 19 -12 6z"/>
<path d="M3214 4836 c1 -8 5 -18 8 -22 4 -3 5 1 4 10 -1 8 -5 18 -8 22 -4 3
-5 -1 -4 -10z"/>
<path d="M3393 4809 c-2 -23 3 -25 10 -4 4 8 3 16 -1 19 -4 3 -9 -4 -9 -15z"/>
<path d="M3431 4813 c7 -12 15 -20 18 -17 3 2 -3 12 -13 22 -17 16 -18 16 -5
-5z"/>
<path d="M3296 4802 c-3 -5 1 -9 9 -9 8 0 12 4 9 9 -3 4 -7 8 -9 8 -2 0 -6 -4
-9 -8z"/>
<path d="M2597 4768 c19 -21 31 -25 14 -5 -6 8 -9 16 -6 19 3 2 -2 5 -10 5
-13 0 -13 -3 2 -19z"/>
<path d="M3520 4780 c-9 -6 -10 -10 -3 -10 6 0 15 5 18 10 8 12 4 12 -15 0z"/>
<path d="M2555 4771 c-3 -5 -2 -12 3 -15 5 -3 9 1 9 9 0 17 -3 19 -12 6z"/>
<path d="M3426 4758 c3 -5 10 -6 15 -3 13 9 11 12 -6 12 -8 0 -12 -4 -9 -9z"/>
<path d="M7320 4760 c-9 -6 -10 -10 -3 -10 6 0 15 5 18 10 8 12 4 12 -15 0z"/>
<path d="M3554 4736 c1 -8 5 -18 8 -22 4 -3 5 1 4 10 -1 8 -5 18 -8 22 -4 3
-5 -1 -4 -10z"/>
<path d="M7395 4729 c-4 -6 -5 -12 -2 -15 2 -3 7 2 10 11 7 17 1 20 -8 4z"/>
<path d="M3475 4720 c3 -5 8 -10 11 -10 2 0 4 5 4 10 0 6 -5 10 -11 10 -5 0
-7 -4 -4 -10z"/>
<path d="M2595 4711 c-3 -5 -2 -12 3 -15 5 -3 9 1 9 9 0 17 -3 19 -12 6z"/>
<path d="M7314 4702 c4 -3 14 -7 22 -8 9 -1 13 0 10 4 -4 3 -14 7 -22 8 -9 1
-13 0 -10 -4z"/>
<path d="M2510 4696 c0 -2 8 -10 18 -17 15 -13 16 -12 3 4 -13 16 -21 21 -21
13z"/>
<path d="M3555 4680 c-3 -5 -1 -10 4 -10 6 0 11 5 11 10 0 6 -2 10 -4 10 -3 0
-8 -4 -11 -10z"/>
<path d="M3786 4682 c-2 -4 4 -8 14 -8 10 0 16 4 14 8 -3 4 -9 8 -14 8 -5 0
-11 -4 -14 -8z"/>
<path d="M7231 4647 c-8 -10 -7 -14 2 -14 8 0 14 6 14 14 0 7 -1 13 -2 13 -2
0 -8 -6 -14 -13z"/>
<path d="M3815 4640 c3 -5 8 -10 11 -10 2 0 4 5 4 10 0 6 -5 10 -11 10 -5 0
-7 -4 -4 -10z"/>
<path d="M2630 4620 c0 -5 5 -10 11 -10 5 0 7 5 4 10 -3 6 -8 10 -11 10 -2 0
-4 -4 -4 -10z"/>
<path d="M3730 4626 c0 -2 7 -7 16 -10 8 -3 12 -2 9 4 -6 10 -25 14 -25 6z"/>
<path d="M3770 4619 c0 -5 5 -7 10 -4 6 3 10 8 10 11 0 2 -4 4 -10 4 -5 0 -10
-5 -10 -11z"/>
<path d="M3993 4615 c0 -8 4 -12 9 -9 5 3 6 10 3 15 -9 13 -12 11 -12 -6z"/>
<path d="M3846 4582 c-3 -5 1 -9 9 -9 8 0 12 4 9 9 -3 4 -7 8 -9 8 -2 0 -6 -4
-9 -8z"/>
<path d="M4116 4581 c-3 -5 2 -15 12 -22 15 -12 16 -12 5 2 -7 9 -10 19 -6 22
3 4 4 7 0 7 -3 0 -8 -4 -11 -9z"/>
<path d="M2630 4576 c0 -2 8 -10 18 -17 15 -13 16 -12 3 4 -13 16 -21 21 -21
13z"/>
<path d="M2479 4553 c-13 -16 -12 -17 4 -4 16 13 21 21 13 21 -2 0 -10 -8 -17
-17z"/>
<path d="M4070 4521 c0 -6 4 -13 10 -16 6 -3 7 1 4 9 -7 18 -14 21 -14 7z"/>
<path d="M2713 4445 c0 -8 4 -12 9 -9 5 3 6 10 3 15 -9 13 -12 11 -12 -6z"/>
<path d="M2375 4381 c-3 -5 -2 -12 3 -15 5 -3 9 1 9 9 0 17 -3 19 -12 6z"/>
<path d="M2335 4299 c-3 -4 2 -6 10 -5 21 3 28 13 10 13 -9 0 -18 -4 -20 -8z"/>
<path d="M5193 4287 c0 -8 6 -14 14 -14 9 0 10 4 2 14 -6 7 -12 13 -14 13 -1
0 -2 -6 -2 -13z"/>
<path d="M2793 4275 c0 -8 4 -12 9 -9 5 3 6 10 3 15 -9 13 -12 11 -12 -6z"/>
<path d="M5136 4278 c3 -5 10 -6 15 -3 13 9 11 12 -6 12 -8 0 -12 -4 -9 -9z"/>
<path d="M5030 4258 c0 -4 4 -8 9 -8 6 0 12 4 15 8 3 5 -1 9 -9 9 -8 0 -15 -4
-15 -9z"/>
<path d="M5076 4261 c-3 -5 2 -15 12 -22 15 -12 16 -12 5 2 -7 9 -10 19 -6 22
3 4 4 7 0 7 -3 0 -8 -4 -11 -9z"/>
<path d="M4990 4256 c0 -2 8 -10 18 -17 15 -13 16 -12 3 4 -13 16 -21 21 -21
13z"/>
<path d="M5204 4238 l-19 -23 23 19 c12 11 22 21 22 23 0 8 -8 2 -26 -19z"/>
<path d="M2296 4218 c3 -5 10 -6 15 -3 13 9 11 12 -6 12 -8 0 -12 -4 -9 -9z"/>
<path d="M5236 4198 c3 -5 10 -6 15 -3 13 9 11 12 -6 12 -8 0 -12 -4 -9 -9z"/>
<path d="M5290 4201 c0 -6 4 -12 8 -15 5 -3 9 1 9 9 0 8 -4 15 -9 15 -4 0 -8
-4 -8 -9z"/>
<path d="M4093 4185 c0 -8 4 -12 9 -9 5 3 6 10 3 15 -9 13 -12 11 -12 -6z"/>
<path d="M5130 4186 c0 -2 7 -7 16 -10 8 -3 12 -2 9 4 -6 10 -25 14 -25 6z"/>
<path d="M5236 4167 c3 -10 9 -15 12 -12 3 3 0 11 -7 18 -10 9 -11 8 -5 -6z"/>
<path d="M4935 4160 c-3 -5 -1 -10 4 -10 6 0 11 5 11 10 0 6 -2 10 -4 10 -3 0
-8 -4 -11 -10z"/>
<path d="M2254 4136 c1 -8 5 -18 8 -22 4 -3 5 1 4 10 -1 8 -5 18 -8 22 -4 3
-5 -1 -4 -10z"/>
<path d="M4850 4139 c0 -5 5 -7 10 -4 6 3 10 8 10 11 0 2 -4 4 -10 4 -5 0 -10
-5 -10 -11z"/>
<path d="M5295 4140 c3 -5 8 -10 11 -10 2 0 4 5 4 10 0 6 -5 10 -11 10 -5 0
-7 -4 -4 -10z"/>
<path d="M4726 4122 c-3 -5 1 -9 9 -9 8 0 12 4 9 9 -3 4 -7 8 -9 8 -2 0 -6 -4
-9 -8z"/>
<path d="M4834 4102 c4 -3 14 -7 22 -8 9 -1 13 0 10 4 -4 3 -14 7 -22 8 -9 1
-13 0 -10 -4z"/>
<path d="M5326 4102 c-3 -5 1 -9 9 -9 8 0 12 4 9 9 -3 4 -7 8 -9 8 -2 0 -6 -4
-9 -8z"/>
<path d="M4176 4058 c3 -4 11 -5 19 -1 21 7 19 12 -4 10 -11 0 -18 -5 -15 -9z"/>
<path d="M4494 4049 c-3 -6 -2 -15 3 -20 5 -5 9 -1 9 11 0 23 -2 24 -12 9z"/>
<path d="M2236 4038 c3 -5 10 -6 15 -3 13 9 11 12 -6 12 -8 0 -12 -4 -9 -9z"/>
<path d="M4300 4046 c0 -2 8 -10 18 -17 15 -13 16 -12 3 4 -13 16 -21 21 -21
13z"/>
<path d="M4416 4038 c3 -5 10 -6 15 -3 13 9 11 12 -6 12 -8 0 -12 -4 -9 -9z"/>
<path d="M4570 4039 c0 -5 5 -7 10 -4 6 3 10 8 10 11 0 2 -4 4 -10 4 -5 0 -10
-5 -10 -11z"/>
<path d="M4686 4038 c3 -5 10 -6 15 -3 13 9 11 12 -6 12 -8 0 -12 -4 -9 -9z"/>
<path d="M2910 4037 c0 -2 6 -10 14 -16 11 -9 16 -9 22 1 4 7 4 10 -1 6 -4 -4
-14 -3 -22 3 -7 6 -13 9 -13 6z"/>
<path d="M4215 4021 c-3 -5 -2 -12 3 -15 5 -3 9 1 9 9 0 17 -3 19 -12 6z"/>
<path d="M4650 4020 c0 -5 5 -10 11 -10 5 0 7 5 4 10 -3 6 -8 10 -11 10 -2 0
-4 -4 -4 -10z"/>
<path d="M4276 4007 c3 -10 9 -15 12 -12 3 3 0 11 -7 18 -10 9 -11 8 -5 -6z"/>
<path d="M4310 4001 c0 -6 4 -13 10 -16 6 -3 7 1 4 9 -7 18 -14 21 -14 7z"/>
<path d="M4576 3978 c3 -4 11 -5 19 -1 21 7 19 12 -4 10 -11 0 -18 -5 -15 -9z"/>
<path d="M2975 3960 c-3 -5 -1 -10 4 -10 6 0 11 5 11 10 0 6 -2 10 -4 10 -3 0
-8 -4 -11 -10z"/>
<path d="M4633 3955 c0 -8 4 -12 9 -9 5 3 6 10 3 15 -9 13 -12 11 -12 -6z"/>
<path d="M2135 3940 c3 -5 8 -10 11 -10 2 0 4 5 4 10 0 6 -5 10 -11 10 -5 0
-7 -4 -4 -10z"/>
<path d="M2057 3835 c-4 -8 -3 -16 1 -19 4 -3 9 4 9 15 2 23 -3 25 -10 4z"/>
<path d="M3033 3805 c0 -8 4 -12 9 -9 5 3 6 10 3 15 -9 13 -12 11 -12 -6z"/>
<path d="M1979 3728 c-5 -18 -6 -38 -1 -34 7 8 12 36 6 36 -2 0 -4 -1 -5 -2z"/>
<path d="M1896 3673 c-6 -14 -5 -15 5 -6 7 7 10 15 7 18 -3 3 -9 -2 -12 -12z"/>
<path d="M1930 3660 c0 -5 5 -10 11 -10 5 0 7 5 4 10 -3 6 -8 10 -11 10 -2 0
-4 -4 -4 -10z"/>
<path d="M3170 3660 c0 -5 5 -10 11 -10 5 0 7 5 4 10 -3 6 -8 10 -11 10 -2 0
-4 -4 -4 -10z"/>
<path d="M1897 3635 c-4 -8 -3 -16 1 -19 4 -3 9 4 9 15 2 23 -3 25 -10 4z"/>
<path d="M3231 3607 c-8 -10 -7 -14 2 -14 8 0 14 6 14 14 0 7 -1 13 -2 13 -2
0 -8 -6 -14 -13z"/>
<path d="M3226 3562 c-3 -5 1 -9 9 -9 8 0 12 4 9 9 -3 4 -7 8 -9 8 -2 0 -6 -4
-9 -8z"/>
<path d="M8539 3568 c-5 -18 -6 -38 -1 -34 7 8 12 36 6 36 -2 0 -4 -1 -5 -2z"/>
<path d="M1836 3547 c3 -10 9 -15 12 -12 3 3 0 11 -7 18 -10 9 -11 8 -5 -6z"/>
<path d="M7133 3525 c0 -8 4 -12 9 -9 5 3 6 10 3 15 -9 13 -12 11 -12 -6z"/>
<path d="M937 3515 c-4 -8 -3 -16 1 -19 4 -3 9 4 9 15 2 23 -3 25 -10 4z"/>
<path d="M1773 3511 c0 -11 5 -18 9 -15 4 3 5 11 1 19 -7 21 -12 19 -10 -4z"/>
<path d="M3310 3499 c0 -5 5 -7 10 -4 6 3 10 8 10 11 0 2 -4 4 -10 4 -5 0 -10
-5 -10 -11z"/>
<path d="M873 3485 c0 -8 4 -12 9 -9 5 3 6 10 3 15 -9 13 -12 11 -12 -6z"/>
<path d="M1637 3490 c7 -8 23 -15 35 -17 12 -2 19 -1 16 3 -3 3 -12 6 -20 8
-7 1 -20 5 -28 10 -12 7 -13 6 -3 -4z"/>
<path d="M7135 3489 c-4 -6 -5 -12 -2 -15 2 -3 7 2 10 11 7 17 1 20 -8 4z"/>
<path d="M7176 3487 c3 -10 9 -15 12 -12 3 3 0 11 -7 18 -10 9 -11 8 -5 -6z"/>
<path d="M1835 3480 c3 -5 8 -10 11 -10 2 0 4 5 4 10 0 6 -5 10 -11 10 -5 0
-7 -4 -4 -10z"/>
<path d="M7233 3465 c0 -8 4 -12 9 -9 5 3 6 10 3 15 -9 13 -12 11 -12 -6z"/>
<path d="M1730 3466 c0 -2 7 -7 16 -10 8 -3 12 -2 9 4 -6 10 -25 14 -25 6z"/>
<path d="M3370 3459 c0 -5 5 -7 10 -4 6 3 10 8 10 11 0 2 -4 4 -10 4 -5 0 -10
-5 -10 -11z"/>
<path d="M3467 3459 c7 -7 15 -10 18 -7 3 3 -2 9 -12 12 -14 6 -15 5 -6 -5z"/>
<path d="M3550 3460 c0 -5 5 -10 11 -10 5 0 7 5 4 10 -3 6 -8 10 -11 10 -2 0
-4 -4 -4 -10z"/>
<path d="M6907 3459 c7 -7 15 -10 18 -7 3 3 -2 9 -12 12 -14 6 -15 5 -6 -5z"/>
<path d="M7050 3459 c0 -5 5 -7 10 -4 6 3 10 8 10 11 0 2 -4 4 -10 4 -5 0 -10
-5 -10 -11z"/>
<path d="M3516 3447 c3 -10 9 -15 12 -12 3 3 0 11 -7 18 -10 9 -11 8 -5 -6z"/>
<path d="M1056 3438 c3 -5 10 -6 15 -3 13 9 11 12 -6 12 -8 0 -12 -4 -9 -9z"/>
<path d="M1520 3446 c0 -2 8 -10 18 -17 15 -13 16 -12 3 4 -13 16 -21 21 -21
13z"/>
<path d="M1566 3438 c3 -5 10 -6 15 -3 13 9 11 12 -6 12 -8 0 -12 -4 -9 -9z"/>
<path d="M3676 3433 c-6 -14 -5 -15 5 -6 7 7 10 15 7 18 -3 3 -9 -2 -12 -12z"/>
<path d="M7185 3439 c-3 -4 2 -6 10 -5 21 3 28 13 10 13 -9 0 -18 -4 -20 -8z"/>
<path d="M1654 3422 c4 -3 14 -7 22 -8 9 -1 13 0 10 4 -4 3 -14 7 -22 8 -9 1
-13 0 -10 -4z"/>
<path d="M3625 3420 c-3 -6 1 -7 9 -4 18 7 21 14 7 14 -6 0 -13 -4 -16 -10z"/>
<path d="M7133 3415 c0 -8 4 -12 9 -9 5 3 6 10 3 15 -9 13 -12 11 -12 -6z"/>
<path d="M3469 3403 c-13 -16 -12 -17 4 -4 16 13 21 21 13 21 -2 0 -10 -8 -17
-17z"/>
<path d="M3553 3405 c0 -8 4 -12 9 -9 5 3 6 10 3 15 -9 13 -12 11 -12 -6z"/>
<path d="M3660 3405 c0 -2 6 -8 13 -14 10 -8 14 -7 14 2 0 8 -6 14 -14 14 -7
0 -13 -1 -13 -2z"/>
<path d="M3746 3402 c-3 -5 1 -9 9 -9 8 0 12 4 9 9 -3 4 -7 8 -9 8 -2 0 -6 -4
-9 -8z"/>
<path d="M1573 3385 c0 -8 4 -12 9 -9 5 3 6 10 3 15 -9 13 -12 11 -12 -6z"/>
<path d="M1094 3378 c-4 -7 -4 -10 1 -6 4 4 15 2 24 -5 14 -11 14 -10 2 6 -16
20 -18 21 -27 5z"/>
<path d="M1387 3379 c7 -7 15 -10 18 -7 3 3 -2 9 -12 12 -14 6 -15 5 -6 -5z"/>
<path d="M5096 3378 c3 -5 10 -6 15 -3 13 9 11 12 -6 12 -8 0 -12 -4 -9 -9z"/>
<path d="M1150 3376 c0 -2 8 -10 18 -17 15 -13 16 -12 3 4 -13 16 -21 21 -21
13z"/>
<path d="M3356 3367 c3 -10 9 -15 12 -12 3 3 0 11 -7 18 -10 9 -11 8 -5 -6z"/>
<path d="M7289 3363 c-13 -16 -12 -17 4 -4 16 13 21 21 13 21 -2 0 -10 -8 -17
-17z"/>
<path d="M1216 3342 c-3 -5 1 -9 9 -9 8 0 12 4 9 9 -3 4 -7 8 -9 8 -2 0 -6 -4
-9 -8z"/>
<path d="M1255 3340 c3 -5 8 -10 11 -10 2 0 4 5 4 10 0 6 -5 10 -11 10 -5 0
-7 -4 -4 -10z"/>
<path d="M8475 3331 c-3 -5 -2 -12 3 -15 5 -3 9 1 9 9 0 17 -3 19 -12 6z"/>
<path d="M1120 3320 c-9 -6 -10 -10 -3 -10 6 0 15 5 18 10 8 12 4 12 -15 0z"/>
<path d="M5079 3313 c-13 -16 -12 -17 4 -4 16 13 21 21 13 21 -2 0 -10 -8 -17
-17z"/>
<path d="M5135 3300 c-3 -5 -1 -10 4 -10 6 0 11 5 11 10 0 6 -2 10 -4 10 -3 0
-8 -4 -11 -10z"/>
<path d="M7310 3300 c0 -5 5 -10 11 -10 5 0 7 5 4 10 -3 6 -8 10 -11 10 -2 0
-4 -4 -4 -10z"/>
<path d="M5150 3246 c0 -2 7 -7 16 -10 8 -3 12 -2 9 4 -6 10 -25 14 -25 6z"/>
<path d="M5230 3236 c7 -7 13 -7 20 0 6 6 3 10 -10 10 -13 0 -16 -4 -10 -10z"/>
<path d="M8260 3166 c0 -2 8 -10 18 -17 15 -13 16 -12 3 4 -13 16 -21 21 -21
13z"/>
<path d="M7366 3122 c-3 -5 1 -9 9 -9 8 0 12 4 9 9 -3 4 -7 8 -9 8 -2 0 -6 -4
-9 -8z"/>
<path d="M8173 3115 c0 -8 4 -12 9 -9 5 3 6 10 3 15 -9 13 -12 11 -12 -6z"/>
<path d="M8209 3117 c6 -8 7 -18 3 -22 -4 -5 -1 -5 6 -1 10 6 10 11 1 22 -6 8
-14 14 -16 14 -3 0 0 -6 6 -13z"/>
<path d="M6850 2859 c0 -5 5 -7 10 -4 6 3 10 8 10 11 0 2 -4 4 -10 4 -5 0 -10
-5 -10 -11z"/>
<path d="M7530 2860 c0 -5 5 -10 11 -10 5 0 7 5 4 10 -3 6 -8 10 -11 10 -2 0
-4 -4 -4 -10z"/>
<path d="M6846 2818 c3 -5 10 -6 15 -3 13 9 11 12 -6 12 -8 0 -12 -4 -9 -9z"/>
<path d="M7530 2820 c0 -5 5 -10 11 -10 5 0 7 5 4 10 -3 6 -8 10 -11 10 -2 0
-4 -4 -4 -10z"/>
<path d="M6739 2793 c-13 -16 -12 -17 3 -5 9 8 23 10 29 6 8 -4 9 -3 5 4 -10
17 -21 15 -37 -5z"/>
<path d="M6490 2776 c0 -2 8 -10 18 -17 15 -13 16 -12 3 4 -13 16 -21 21 -21
13z"/>
<path d="M6639 2778 c-5 -18 -6 -38 -1 -34 7 8 12 36 6 36 -2 0 -4 -1 -5 -2z"/>
<path d="M6535 2760 c-2 -3 9 -6 25 -6 17 0 27 2 25 5 -8 7 -45 9 -50 1z"/>
<path d="M6825 2760 c-3 -6 1 -7 9 -4 18 7 21 14 7 14 -6 0 -13 -4 -16 -10z"/>
<path d="M7590 2766 c0 -2 7 -7 16 -10 8 -3 12 -2 9 4 -6 10 -25 14 -25 6z"/>
<path d="M7634 2756 c1 -8 5 -18 8 -22 4 -3 5 1 4 10 -1 8 -5 18 -8 22 -4 3
-5 -1 -4 -10z"/>
<path d="M7664 2762 c4 -3 14 -7 22 -8 9 -1 13 0 10 4 -4 3 -14 7 -22 8 -9 1
-13 0 -10 -4z"/>
<path d="M6535 2720 c3 -5 8 -10 11 -10 2 0 4 5 4 10 0 6 -5 10 -11 10 -5 0
-7 -4 -4 -10z"/>
<path d="M7815 2720 c5 -8 42 -6 50 1 2 3 -8 5 -25 5 -16 0 -27 -3 -25 -6z"/>
<path d="M8035 2720 c3 -5 8 -10 11 -10 2 0 4 5 4 10 0 6 -5 10 -11 10 -5 0
-7 -4 -4 -10z"/>
<path d="M6736 2698 c3 -5 10 -6 15 -3 13 9 11 12 -6 12 -8 0 -12 -4 -9 -9z"/>
<path d="M7855 2689 c-4 -6 -5 -12 -2 -15 2 -3 7 2 10 11 7 17 1 20 -8 4z"/>
<path d="M7595 2680 c3 -5 8 -10 11 -10 2 0 4 5 4 10 0 6 -5 10 -11 10 -5 0
-7 -4 -4 -10z"/>
<path d="M7735 2660 c-3 -5 -1 -10 4 -10 6 0 11 5 11 10 0 6 -2 10 -4 10 -3 0
-8 -4 -11 -10z"/>
<path d="M7770 2659 c0 -5 5 -7 10 -4 6 3 10 8 10 11 0 2 -4 4 -10 4 -5 0 -10
-5 -10 -11z"/>
<path d="M7873 2645 c0 -8 4 -12 9 -9 5 3 6 10 3 15 -9 13 -12 11 -12 -6z"/>
<path d="M7815 2619 c-3 -4 2 -6 10 -5 21 3 28 13 10 13 -9 0 -18 -4 -20 -8z"/>
<path d="M4473 2485 c0 -8 4 -12 9 -9 5 3 6 10 3 15 -9 13 -12 11 -12 -6z"/>
<path d="M4255 2451 c-3 -5 -2 -12 3 -15 5 -3 9 1 9 9 0 17 -3 19 -12 6z"/>
<path d="M4455 2440 c3 -5 8 -10 11 -10 2 0 4 5 4 10 0 6 -5 10 -11 10 -5 0
-7 -4 -4 -10z"/>
<path d="M4356 2407 c3 -10 9 -15 12 -12 3 3 0 11 -7 18 -10 9 -11 8 -5 -6z"/>
<path d="M4393 2395 c0 -8 4 -12 9 -9 5 3 6 10 3 15 -9 13 -12 11 -12 -6z"/>
<path d="M4526 2382 c-3 -5 1 -9 9 -9 8 0 12 4 9 9 -3 4 -7 8 -9 8 -2 0 -6 -4
-9 -8z"/>
<path d="M4740 2366 c0 -2 8 -10 18 -17 15 -13 16 -12 3 4 -13 16 -21 21 -21
13z"/>
<path d="M4706 2318 c3 -5 10 -6 15 -3 13 9 11 12 -6 12 -8 0 -12 -4 -9 -9z"/>
<path d="M4806 2318 c3 -5 10 -6 15 -3 13 9 11 12 -6 12 -8 0 -12 -4 -9 -9z"/>
<path d="M4873 2305 c0 -8 4 -12 9 -9 5 3 6 10 3 15 -9 13 -12 11 -12 -6z"/>
<path d="M4775 2300 c3 -5 8 -10 11 -10 2 0 4 5 4 10 0 6 -5 10 -11 10 -5 0
-7 -4 -4 -10z"/>
<path d="M4740 2246 c0 -2 8 -10 18 -17 15 -13 16 -12 3 4 -13 16 -21 21 -21
13z"/>
<path d="M6117 1835 c-4 -8 -3 -16 1 -19 4 -3 9 4 9 15 2 23 -3 25 -10 4z"/>
<path d="M6146 1822 c-2 -4 4 -8 14 -8 10 0 16 4 14 8 -3 4 -9 8 -14 8 -5 0
-11 -4 -14 -8z"/>
<path d="M6307 1779 c7 -7 15 -10 18 -7 3 3 -2 9 -12 12 -14 6 -15 5 -6 -5z"/>
<path d="M6175 1760 c3 -5 8 -10 11 -10 2 0 4 5 4 10 0 6 -5 10 -11 10 -5 0
-7 -4 -4 -10z"/>
<path d="M6276 1727 c3 -10 9 -15 12 -12 3 3 0 11 -7 18 -10 9 -11 8 -5 -6z"/>
<path d="M6995 1731 c-3 -5 -2 -12 3 -15 5 -3 9 1 9 9 0 17 -3 19 -12 6z"/>
<path d="M6310 1719 c0 -5 5 -7 10 -4 6 3 10 8 10 11 0 2 -4 4 -10 4 -5 0 -10
-5 -10 -11z"/>
<path d="M6476 1679 c4 -8 30 -6 38 2 3 3 -5 5 -19 5 -13 0 -22 -3 -19 -7z"/>
<path d="M6350 1660 c0 -5 5 -10 11 -10 5 0 7 5 4 10 -3 6 -8 10 -11 10 -2 0
-4 -4 -4 -10z"/>
<path d="M6400 1660 c-12 -7 -10 -9 7 -7 12 0 19 5 17 9 -6 10 -6 10 -24 -2z"/>
<path d="M6495 1620 c-3 -5 -1 -10 4 -10 6 0 11 5 11 10 0 6 -2 10 -4 10 -3 0
-8 -4 -11 -10z"/>
<path d="M6869 1563 c-13 -16 -12 -17 4 -4 16 13 21 21 13 21 -2 0 -10 -8 -17
-17z"/>
<path d="M6065 1560 c-3 -6 1 -7 9 -4 18 7 21 14 7 14 -6 0 -13 -4 -16 -10z"/>
<path d="M6580 1526 c0 -2 8 -10 18 -17 15 -13 16 -12 3 4 -13 16 -21 21 -21
13z"/>
<path d="M6670 1506 c0 -2 7 -7 16 -10 8 -3 12 -2 9 4 -6 10 -25 14 -25 6z"/>
<path d="M6734 1462 c4 -3 14 -7 22 -8 9 -1 13 0 10 4 -4 3 -14 7 -22 8 -9 1
-13 0 -10 -4z"/>
<path d="M6796 1438 c3 -5 10 -6 15 -3 13 9 11 12 -6 12 -8 0 -12 -4 -9 -9z"/>
<path d="M4813 1425 c0 -8 4 -12 9 -9 5 3 6 10 3 15 -9 13 -12 11 -12 -6z"/>
<path d="M5955 1291 c-3 -5 -2 -12 3 -15 5 -3 9 1 9 9 0 17 -3 19 -12 6z"/>
<path d="M5835 1219 c-3 -4 2 -6 10 -5 21 3 28 13 10 13 -9 0 -18 -4 -20 -8z"/>
<path d="M5815 1180 c3 -5 8 -10 11 -10 2 0 4 5 4 10 0 6 -5 10 -11 10 -5 0
-7 -4 -4 -10z"/>
<path d="M5518 1118 c-9 -5 -6 -7 9 -5 12 2 25 6 28 8 8 9 -23 6 -37 -3z"/>
<path d="M5590 1125 c0 -7 30 -13 34 -7 3 4 -4 9 -15 9 -10 1 -19 0 -19 -2z"/>
<path d="M4954 1102 c4 -3 14 -7 22 -8 9 -1 13 0 10 4 -4 3 -14 7 -22 8 -9 1
-13 0 -10 -4z"/>
<path d="M5646 1082 c-3 -5 1 -9 9 -9 8 0 12 4 9 9 -3 4 -7 8 -9 8 -2 0 -6 -4
-9 -8z"/>
<path d="M5495 1031 c-3 -5 -2 -12 3 -15 5 -3 9 1 9 9 0 17 -3 19 -12 6z"/>
<path d="M5333 985 c0 -8 4 -12 9 -9 5 3 6 10 3 15 -9 13 -12 11 -12 -6z"/>
<path d="M5375 981 c-3 -5 -2 -12 3 -15 5 -3 9 1 9 9 0 17 -3 19 -12 6z"/>
<path d="M5215 940 c3 -5 8 -10 11 -10 2 0 4 5 4 10 0 6 -5 10 -11 10 -5 0 -7
-4 -4 -10z"/>
<path d="M5156 907 c3 -10 9 -15 12 -12 3 3 0 11 -7 18 -10 9 -11 8 -5 -6z"/>
</g>
</svg>
